<?xml version="1.0" encoding="UTF-8"?>
<svg id="Layer_1" data-name="Layer 1" xmlns="http://www.w3.org/2000/svg" xmlns:xlink="http://www.w3.org/1999/xlink" viewBox="0 0 2000 2000">
  <defs>
    <style>
      .cls-1 {
        fill: url(#linear-gradient-7);
      }

      .cls-2 {
        fill: url(#linear-gradient-5);
      }

      .cls-3 {
        fill: url(#linear-gradient-6);
      }

      .cls-4 {
        fill: url(#linear-gradient-4);
      }

      .cls-5 {
        fill: url(#linear-gradient-3);
      }

      .cls-6 {
        fill: url(#linear-gradient-2);
      }

      .cls-7 {
        fill: none;
        stroke: #f7931e;
        stroke-miterlimit: 10;
        stroke-width: 2px;
      }

      .cls-8 {
        fill: url(#linear-gradient);
      }

      .cls-9 {
        fill: #fff;
      }

      .cls-10 {
        fill: #1a1a1a;
      }
    </style>
    <linearGradient id="linear-gradient" x1="1571.61" y1="1947.72" x2="606.93" y2="350.67" gradientUnits="userSpaceOnUse">
      <stop offset="0" stop-color="#c0cbce"/>
      <stop offset="1" stop-color="#fff"/>
    </linearGradient>
    <linearGradient id="linear-gradient-2" x1="69.36" y1="1382.21" x2="2917.78" y2="2313.89" gradientUnits="userSpaceOnUse">
      <stop offset="0" stop-color="#29abe2"/>
      <stop offset="1" stop-color="#255f93"/>
    </linearGradient>
    <linearGradient id="linear-gradient-3" x1="939.62" y1="736.16" x2="962.65" y2="815.72" gradientUnits="userSpaceOnUse">
      <stop offset="0" stop-color="#f45c21"/>
      <stop offset="1" stop-color="#f7931e"/>
    </linearGradient>
    <linearGradient id="linear-gradient-4" x1="1204.11" y1="1381.42" x2="810.33" y2="548.31" gradientUnits="userSpaceOnUse">
      <stop offset="0" stop-color="#c1272d"/>
      <stop offset="1" stop-color="#871236"/>
    </linearGradient>
    <linearGradient id="linear-gradient-5" x1="985.01" y1="906.72" x2="1030.66" y2="1022.8" gradientUnits="userSpaceOnUse">
      <stop offset="0" stop-color="#353535"/>
      <stop offset="1" stop-color="#494949"/>
    </linearGradient>
    <linearGradient id="linear-gradient-6" x1="839.63" y1="365.26" x2="958.97" y2="800.77" gradientUnits="userSpaceOnUse">
      <stop offset="0" stop-color="#fbb03b"/>
      <stop offset="1" stop-color="#f7931e"/>
    </linearGradient>
    <linearGradient id="linear-gradient-7" x1="1844.48" y1="1545.23" x2="-533.25" y2="2287.67" xlink:href="#linear-gradient-2"/>
  </defs>
  <rect class="cls-8" width="1995.72" height="1995.72"/>
  <path class="cls-6" d="M2000,1377.51v618.21H0v-663.12c99.4,0,149.95,11.35,198.83,22.33,49.44,11.1,100.57,22.58,201.17,22.58s151.72-11.48,201.17-22.58c48.88-10.98,99.42-22.33,198.82-22.33s149.95,11.35,198.83,22.33c49.45,11.1,100.58,22.58,201.18,22.58s151.72-11.48,201.17-22.58c48.88-10.98,99.42-22.33,198.83-22.33s149.95,11.35,198.83,22.33c49.44,11.1,100.57,22.58,201.17,22.58Z"/>
  <g>
    <ellipse class="cls-10" cx="808.89" cy="303.85" rx="24.81" ry="36.07" transform="translate(-53.19 245.11) rotate(-16.69)"/>
    <path class="cls-5" d="M1697.46,625.28c-16.81-8.24-79.18-10.91-171.47,20.94-95.26,32.89-107.58,57.85-107.58,57.85,0,0-147.01-16.03-465.69,79.52-318.69,95.55-432.62,189.81-432.62,189.81,0,0-24.01-14.06-121.65,10.89-94.59,24.17-145.2,60.73-154.7,76.85-15.82-206.78,120.78-681.06,565.14-757.29,413-180.83,788.01,140.05,888.58,321.42Z"/>
    <path class="cls-4" d="M1411.85,837.4c67.26,224.34,53.64,840-170.7,907.26-224.34,67.26-574.44-439.34-641.71-663.68-67.26-224.34,60.07-460.73,284.41-527.99,224.34-67.26,460.73,60.07,527.99,284.41Z"/>
    <circle class="cls-9" cx="1005.64" cy="959.19" r="169.09"/>
    <circle class="cls-2" cx="1005.64" cy="959.19" r="100.52"/>
    <rect class="cls-9" x="611.33" y="615.99" width="43.83" height="314.7" transform="translate(-339.84 544.96) rotate(-37.48)"/>
    <rect class="cls-9" x="1199.58" y="439.62" width="43.83" height="314.7" transform="translate(2397.2 1279.73) rotate(-175.9)"/>
    <path class="cls-9" d="M1416.24,805.16c3.55,11.83,3.44,24.42,0,37.51-63.03-56.59-245.62-58.22-445.29,1.65-199.68,59.87-351.25,161.69-372.75,243.62-10.08-9.04-17.09-19.5-20.64-31.33-25.73-85.82,141.15-211.71,372.75-281.15,231.59-69.44,440.2-56.14,465.94,29.69Z"/>
    <path class="cls-3" d="M808.89,303.85C364.54,380.08,227.93,854.36,243.75,1061.14c9.51-16.13,56.82-90.86,142.39-117.93,96.08-30.4,118.27-22.18,118.27-22.18,0,0,105-124.04,423.69-219.59,318.69-95.55,474.61-49.74,474.61-49.74,0,0,14.01-19.07,110.96-46.55,86.35-24.47,166.98,11.89,183.79,20.13-100.57-181.37-475.58-502.25-888.57-321.43Z"/>
    <path class="cls-7" d="M808.89,303.85c-54.54,40.16-160.99,129.89-233.38,283.49-66.02,140.08-72.42,266.9-71.11,333.68"/>
    <path class="cls-7" d="M809.13,303.78c67.64,3.53,205.9,19.89,350.85,108.32,132.2,80.65,207.32,183.03,242.97,239.52"/>
  </g>
  <path class="cls-1" d="M2000,1643.72v356.28H0v-382.16c99.4,0,149.95,6.54,198.83,12.87,49.44,6.4,100.57,13.01,201.17,13.01s151.72-6.61,201.17-13.01c48.88-6.33,99.42-12.87,198.82-12.87s149.95,6.54,198.83,12.87c49.45,6.4,100.58,13.01,201.18,13.01s151.72-6.61,201.17-13.01c48.88-6.33,99.42-12.87,198.83-12.87s149.95,6.54,198.83,12.87c49.44,6.4,100.57,13.01,201.17,13.01Z"/>
</svg>